<svg xmlns="http://www.w3.org/2000/svg">


	<symbol id="tel" viewBox="0 0 20 20" fill="none">
		<path
			d="M11.5267 13.8067C11.6988 13.8857 11.8927 13.9038 12.0764 13.8579C12.2602 13.812 12.4228 13.7048 12.5375 13.5542L12.8334 13.1667C12.9886 12.9597 13.1899 12.7917 13.4213 12.6759C13.6528 12.5602 13.9079 12.5 14.1667 12.5H16.6667C17.1087 12.5 17.5326 12.6756 17.8452 12.9881C18.1578 13.3007 18.3334 13.7246 18.3334 14.1667V16.6667C18.3334 17.1087 18.1578 17.5326 17.8452 17.8452C17.5326 18.1577 17.1087 18.3333 16.6667 18.3333C12.6884 18.3333 8.87313 16.753 6.06009 13.9399C3.24704 11.1269 1.66669 7.31157 1.66669 3.33332C1.66669 2.8913 1.84228 2.46737 2.15484 2.15481C2.4674 1.84225 2.89133 1.66666 3.33335 1.66666H5.83335C6.27538 1.66666 6.6993 1.84225 7.01186 2.15481C7.32443 2.46737 7.50002 2.8913 7.50002 3.33332V5.83332C7.50002 6.09206 7.43978 6.34725 7.32407 6.57868C7.20835 6.8101 7.04035 7.01141 6.83335 7.16666L6.44335 7.45916C6.29037 7.57597 6.18254 7.74214 6.13818 7.92945C6.09382 8.11675 6.11567 8.31364 6.20002 8.48666C7.33892 10.7999 9.21204 12.6707 11.5267 13.8067Z"
			stroke="currentColor" stroke-width="1.5" stroke-linecap="round" stroke-linejoin="round" />
	</symbol>
	<symbol id="social-icon_01" viewBox="0 0 20 20" fill="none">
		<path
			d="M2.92969 20H9.45312V12.8906H7.10938V10.5469H9.45312V7.61719C9.45312 6.00174 10.7674 4.6875 12.3828 4.6875H15.3125V7.03125H12.9688C12.3225 7.03125 11.7969 7.55692 11.7969 8.20312V10.5469H15.2068L14.8161 12.8906H11.7969V20H17.0703C18.6858 20 20 18.6858 20 17.0703V2.92969C20 1.31424 18.6858 0 17.0703 0H2.92969C1.31424 0 0 1.31424 0 2.92969V17.0703C0 18.6858 1.31424 20 2.92969 20ZM1.17188 2.92969C1.17188 1.96045 1.96045 1.17188 2.92969 1.17188H17.0703C18.0396 1.17188 18.8281 1.96045 18.8281 2.92969V17.0703C18.8281 18.0396 18.0396 18.8281 17.0703 18.8281H12.9688V14.0625H15.8089L16.5901 9.375H12.9688V8.20312H16.4844V3.51562H12.3828C10.1212 3.51562 8.28125 5.35553 8.28125 7.61719V9.375H5.9375V14.0625H8.28125V18.8281H2.92969C1.96045 18.8281 1.17188 18.0396 1.17188 17.0703V2.92969Z"
			fill="currentColor" />

	</symbol>
	<symbol id="social-icon_02" viewBox="0 0 20 20" fill="none">
		<path
			d="M20 4.35101C20 3.33617 19.1743 2.5105 18.1595 2.5105H1.84052C0.825863 2.51054 0.000351564 3.33581 0 4.35133V4.35164V15.6485C0 16.6761 0.834066 17.4897 1.84114 17.4897H18.1588C19.1863 17.4897 20 16.6556 20 15.6485V4.35164C20 4.35156 20 4.35148 20 4.3514C20 4.35129 20 4.35117 20 4.35101ZM1.84052 3.68242H18.1595C18.5282 3.68242 18.8281 3.98238 18.8281 4.35199C18.8281 4.5484 18.7305 4.7307 18.5668 4.83976L10.3713 10.3037C10.1458 10.454 9.8543 10.4541 9.62875 10.3037C9.62875 10.3037 1.43301 4.83965 1.43317 4.83976C1.43321 4.8398 1.43305 4.83969 1.43301 4.83965C1.2695 4.7307 1.17188 4.5484 1.17188 4.35101C1.17188 3.98234 1.47184 3.68242 1.84052 3.68242ZM18.1589 16.3178H1.84114C1.47633 16.3178 1.17188 16.0228 1.17188 15.6485V6.07403L8.97867 11.2787C9.2889 11.4855 9.64445 11.5889 10 11.5889C10.3556 11.5889 10.7112 11.4855 11.0214 11.2787L18.8281 6.07403V15.6486C18.8281 16.0133 18.5332 16.3178 18.1589 16.3178Z"
			fill="currentColor" />


	</symbol>
	<symbol id="home-hero-icon_01" viewBox="0 0 20 20" fill="none">
		<path
			d="M16.6667 10.8334C16.6667 15 13.75 17.0834 10.2833 18.2917C10.1018 18.3532 9.90461 18.3503 9.72499 18.2834C6.24999 17.0834 3.33333 15 3.33333 10.8334V5.00003C3.33333 4.77902 3.42113 4.56705 3.57741 4.41077C3.73369 4.25449 3.94565 4.1667 4.16666 4.1667C5.83333 4.1667 7.91666 3.1667 9.36666 1.90003C9.54321 1.74919 9.76779 1.66632 9.99999 1.66632C10.2322 1.66632 10.4568 1.74919 10.6333 1.90003C12.0917 3.17503 14.1667 4.1667 15.8333 4.1667C16.0543 4.1667 16.2663 4.25449 16.4226 4.41077C16.5789 4.56705 16.6667 4.77902 16.6667 5.00003V10.8334Z"
			stroke="currentColor" stroke-linecap="round" stroke-linejoin="round" />
		<path d="M7.5 9.99998L9.16667 11.6666L12.5 8.33331" stroke="currentColor" stroke-linecap="round"
			stroke-linejoin="round" />

	</symbol>
	<symbol id="home-hero-icon_02" viewBox="0 0 20 20" fill="none">
		<path d="M8.75 2.5L6.66667 7.5L10 18.3333L13.3333 7.5L11.25 2.5" stroke="currentColor" stroke-linecap="round"
			stroke-linejoin="round" />
		<path
			d="M14.1667 2.5C14.4254 2.5 14.6806 2.56024 14.912 2.67595C15.1435 2.79167 15.3448 2.95967 15.5 3.16667L18 6.5C18.2144 6.78597 18.3312 7.13329 18.3332 7.49071C18.3351 7.84813 18.2221 8.19671 18.0108 8.485L11.3525 17.64C11.1981 17.8546 10.9949 18.0293 10.7597 18.1499C10.5245 18.2705 10.2639 18.3333 9.99959 18.3333C9.73526 18.3333 9.47472 18.2705 9.23948 18.1499C9.00424 18.0293 8.80105 17.8546 8.64667 17.64L1.98834 8.485C1.77718 8.19662 1.66433 7.84799 1.66643 7.49057C1.66853 7.13316 1.78547 6.78588 2.00001 6.5L4.49834 3.16917C4.65349 2.96149 4.85495 2.79286 5.0867 2.6767C5.31845 2.56053 5.57411 2.50003 5.83334 2.5H14.1667Z"
			stroke="currentColor" stroke-linecap="round" stroke-linejoin="round" />
		<path d="M1.66667 7.5H18.3333" stroke="currentColor" stroke-linecap="round" stroke-linejoin="round" />
	</symbol>
	<symbol id="home-hero-icon_03" viewBox="0 0 20 20" fill="none">
		<path
			d="M9.99999 10.8333C12.3012 10.8333 14.1667 8.96785 14.1667 6.66667C14.1667 4.36548 12.3012 2.5 9.99999 2.5C7.69881 2.5 5.83333 4.36548 5.83333 6.66667C5.83333 8.96785 7.69881 10.8333 9.99999 10.8333Z"
			stroke="currentColor" stroke-linecap="round" stroke-linejoin="round" />
		<path
			d="M16.6667 17.5C16.6667 15.7319 15.9643 14.0362 14.714 12.7859C13.4638 11.5357 11.7681 10.8333 9.99999 10.8333C8.23188 10.8333 6.53619 11.5357 5.28595 12.7859C4.03571 14.0362 3.33333 15.7319 3.33333 17.5"
			stroke="currentColor" stroke-linecap="round" stroke-linejoin="round" />
	</symbol>
	<symbol id="arrow" viewBox="0 0 24 24" fill="none">
		<path d="M5 12H19" stroke="currentColor" stroke-width="1.5" stroke-linecap="round" stroke-linejoin="round" />
		<path d="M12 5L19 12L12 19" stroke="currentColor" stroke-width="1.5" stroke-linecap="round"
			stroke-linejoin="round" />
	</symbol>
	<symbol id="home-services-icon_01" viewBox="0 0 64 64" fill="none">
		<g clip-path="url(#clip0_10_3793)">
			<path
				d="M32 64C30.2 64 28.8 62.6 28.8 60.8V53.6C25.3 53.1 21.9 51.7 19 49.6L13.9 54.7C12.6 56 10.6 56 9.3 54.7C8 53.4 8 51.4 9.3 50.1L14.4 45C12.3 42.1 10.9 38.8 10.4 35.2H3.2C1.4 35.2 0 33.8 0 32C0 30.2 1.4 28.8 3.2 28.8H10.4C10.9 25.3 12.3 21.9 14.4 19L9.3 13.9C8 12.6 8 10.6 9.3 9.3C10.6 8 12.6 8 13.9 9.3L19 14.4C21.9 12.3 25.2 10.9 28.8 10.4V3.2C28.8 1.4 30.2 0 32 0C33.8 0 35.2 1.4 35.2 3.2V10.4C38.7 10.9 42.1 12.3 45 14.4L50.1 9.3C51.4 8 53.4 8 54.7 9.3C56 10.6 56 12.6 54.7 13.9L49.6 19C51.7 21.9 53.1 25.2 53.6 28.8H60.8C62.6 28.8 64 30.2 64 32C64 33.8 62.6 35.2 60.8 35.2H53.6C53.1 38.7 51.7 42.1 49.6 45L54.7 50.1C56 51.4 56 53.4 54.7 54.7C53.4 56 51.4 56 50.1 54.7L45 49.6C42.1 51.7 38.8 53.1 35.2 53.6V60.8C35.2 62.6 33.8 64 32 64ZM18.9 47.3C19.1 47.3 19.3 47.4 19.5 47.5C22.5 49.9 26 51.4 29.8 51.8C30.3 51.9 30.7 52.3 30.7 52.8V60.8C30.7 61.5 31.3 62.1 32 62.1C32.7 62.1 33.3 61.5 33.3 60.8V52.8C33.3 52.3 33.7 51.9 34.2 51.8C38 51.4 41.5 49.9 44.5 47.5C44.9 47.2 45.4 47.2 45.8 47.6L51.5 53.3C52 53.8 52.8 53.8 53.3 53.3C53.8 52.8 53.8 52 53.3 51.5L47.6 45.8C47.2 45.4 47.2 44.9 47.5 44.5C49.9 41.5 51.4 38 51.8 34.2C51.9 33.7 52.3 33.3 52.8 33.3H60.8C61.5 33.3 62.1 32.7 62.1 32C62.1 31.3 61.5 30.7 60.8 30.7H52.8C52.3 30.7 51.9 30.3 51.8 29.8C51.4 26 49.9 22.5 47.5 19.5C47.2 19.1 47.2 18.6 47.6 18.2L53.3 12.5C53.8 12 53.8 11.2 53.3 10.7C52.8 10.2 52 10.2 51.5 10.7L45.8 16.4C45.5 16.8 44.9 16.8 44.5 16.5C41.5 14.1 38 12.6 34.2 12.2C33.7 12.1 33.3 11.7 33.3 11.2V3.2C33.3 2.5 32.7 1.9 32 1.9C31.3 1.9 30.7 2.5 30.7 3.2V11.2C30.7 11.7 30.3 12.1 29.8 12.2C26 12.6 22.5 14.1 19.5 16.5C19.1 16.8 18.6 16.8 18.2 16.4L12.5 10.7C12 10.2 11.2 10.2 10.7 10.7C10.2 11.2 10.2 12 10.7 12.5L16.4 18.2C16.8 18.6 16.8 19.1 16.5 19.5C14.1 22.5 12.6 26 12.2 29.8C12.1 30.3 11.7 30.7 11.2 30.7H3.2C2.5 30.7 1.9 31.3 1.9 32C1.9 32.7 2.5 33.3 3.2 33.3H11.2C11.7 33.3 12.1 33.7 12.2 34.2C12.6 38 14.1 41.5 16.5 44.5C16.8 44.9 16.8 45.4 16.4 45.8L10.7 51.5C10.2 52 10.2 52.8 10.7 53.3C11.2 53.8 12 53.8 12.5 53.3L18.2 47.6C18.4 47.4 18.7 47.3 18.9 47.3Z"
				fill="currentColor" />
			<path
				d="M32 47.8C23.3 47.8 16.2 40.7 16.2 32C16.2 23.3 23.3 16.2 32 16.2C40.7 16.2 47.8 23.3 47.8 32C47.8 40.7 40.7 47.8 32 47.8ZM32 18.1C24.3 18.1 18.1 24.3 18.1 32C18.1 39.7 24.3 45.9 32 45.9C39.7 45.9 45.9 39.7 45.9 32C45.9 24.3 39.7 18.1 32 18.1Z"
				fill="currentColor" />
			<path
				d="M32 37.7C28.8 37.7 26.3 35.1 26.3 32C26.3 28.8 28.9 26.3 32 26.3C35.2 26.3 37.7 28.9 37.7 32C37.7 35.2 35.2 37.7 32 37.7ZM32 28.2C29.9 28.2 28.2 29.9 28.2 32C28.2 34.1 29.9 35.8 32 35.8C34.1 35.8 35.8 34.1 35.8 32C35.8 29.9 34.1 28.2 32 28.2Z"
				fill="currentColor" />
			<path
				d="M32 47.8C31.5 47.8 31 47.4 31 46.8V36.8C31 36.3 31.4 35.8 32 35.8C32.6 35.8 33 36.2 33 36.8V46.9C33 47.4 32.5 47.8 32 47.8Z"
				fill="currentColor" />
			<path
				d="M32 28.2C31.5 28.2 31 27.8 31 27.2V17.1C31 16.6 31.4 16.1 32 16.1C32.6 16.1 33 16.5 33 17.1V27.2C33 27.8 32.5 28.2 32 28.2Z"
				fill="currentColor" />
			<path
				d="M42.5 43.5C42.3 43.5 42 43.4 41.8 43.2L34.7 36.1C34.3 35.7 34.3 35.1 34.7 34.7C35.1 34.3 35.7 34.3 36.1 34.7L43.2 41.8C43.6 42.2 43.6 42.8 43.2 43.2C43 43.4 42.8 43.5 42.5 43.5Z"
				fill="currentColor" />
			<path
				d="M28.6 29.6C28.4 29.6 28.1 29.5 27.9 29.3L20.8 22.2C20.4 21.8 20.4 21.2 20.8 20.8C21.2 20.4 21.8 20.4 22.2 20.8L29.3 27.9C29.7 28.3 29.7 28.9 29.3 29.3C29.1 29.5 28.9 29.6 28.6 29.6Z"
				fill="currentColor" />
			<path
				d="M46.9 33H36.8C36.3 33 35.8 32.6 35.8 32C35.8 31.4 36.2 31 36.8 31H46.9C47.4 31 47.9 31.4 47.9 32C47.9 32.6 47.4 33 46.9 33Z"
				fill="currentColor" />
			<path
				d="M27.2 33H17.1C16.6 33 16.1 32.6 16.1 32C16.1 31.4 16.5 31 17.1 31H27.2C27.7 31 28.2 31.4 28.2 32C28.2 32.6 27.8 33 27.2 33Z"
				fill="currentColor" />
			<path
				d="M35.4 29.6C35.2 29.6 34.9 29.5 34.7 29.3C34.3 28.9 34.3 28.3 34.7 27.9L41.8 20.8C42.2 20.4 42.8 20.4 43.2 20.8C43.6 21.2 43.6 21.8 43.2 22.2L36.1 29.3C35.9 29.5 35.6 29.6 35.4 29.6Z"
				fill="currentColor" />
			<path
				d="M21.5 43.5C21.3 43.5 21 43.4 20.8 43.2C20.4 42.8 20.4 42.2 20.8 41.8L27.9 34.7C28.3 34.3 28.9 34.3 29.3 34.7C29.7 35.1 29.7 35.7 29.3 36.1L22.2 43.2C22 43.4 21.7 43.5 21.5 43.5Z"
				fill="currentColor" />
		</g>
		<defs>
			<clipPath id="clip0_10_3793">
				<rect width="64" height="64" fill="white" />
			</clipPath>
		</defs>
	</symbol>
	<symbol id="home-services-icon_02" viewBox="0 0 60 60" fill="none">
		<g clip-path="url(#clip0_10_3821)">
			<path
				d="M27.8712 21.6895H32.1287C33.0468 21.6895 33.7938 20.9425 33.7938 20.0244V17.8928C33.7938 16.9747 33.0468 16.2276 32.1287 16.2276H27.8712C26.953 16.2276 26.2064 16.9747 26.2064 17.8928V20.0244C26.2064 20.9425 26.953 21.6895 27.8712 21.6895ZM27.9859 18.0073H32.0142V19.9099H27.9859V18.0073ZM22.2465 16.2276H17.9893C17.0712 16.2276 16.3241 16.9747 16.3241 17.8928V20.0244C16.3241 20.9425 17.0712 21.6895 17.9893 21.6895H22.2465C23.1646 21.6895 23.9116 20.9425 23.9116 20.0244V17.8928C23.9116 16.9747 23.1646 16.2276 22.2465 16.2276ZM22.132 19.9099H18.1037V18.0073H22.132V19.9099ZM37.7534 21.6895H42.0106C42.9287 21.6895 43.6757 20.9425 43.6757 20.0244V17.8928C43.6757 16.9747 42.9287 16.2276 42.0106 16.2276H37.7534C36.8352 16.2276 36.0883 16.9747 36.0883 17.8928V20.0244C36.0883 20.9425 36.8352 21.6895 37.7534 21.6895ZM37.8678 18.0073H41.8961V19.9099H37.8678V18.0073ZM59.1102 50.5691C56.9826 50.5691 55.8862 51.4371 54.9188 52.203C54.0339 52.9039 53.335 53.4574 51.8147 53.4574C51.1641 53.4574 50.6691 53.3505 50.2409 53.1779L54.135 43.7739C55.053 41.5627 54.6187 38.9963 53.0393 37.249C51.955 36.0424 50.1198 34.1233 47.778 32.0854V17.4277C47.778 14.7329 45.5866 12.5415 42.8917 12.5415H36.7223V8.1094C36.7223 6.26344 35.2218 4.76306 33.3759 4.76306H26.6241C24.7782 4.76306 23.2777 6.26344 23.2777 8.1094V12.5415H17.1181C14.4233 12.5415 12.222 14.7329 12.222 17.4277V32.0854C9.8802 34.1233 8.04502 36.0424 6.96066 37.249C5.3813 38.9963 4.94696 41.5627 5.86497 43.7739L9.75102 53.1712C9.32121 53.3478 8.82433 53.4574 8.16913 53.4574C6.65948 53.4574 5.96372 52.9053 5.08265 52.2061C4.11571 51.4389 3.01985 50.5691 0.889809 50.5691C0.398428 50.5691 0 50.9675 0 51.4588C0 51.9502 0.398428 52.3487 0.889819 52.3487C2.39953 52.3487 3.09541 52.901 3.97649 53.5999C4.94343 54.3672 6.03929 55.237 8.16915 55.237C10.2899 55.237 11.3823 54.3684 12.3463 53.6019C13.2266 52.9016 13.9221 52.3487 15.4332 52.3487C16.9429 52.3487 17.6387 52.9007 18.5196 53.5999C19.4867 54.3672 20.5825 55.237 22.7127 55.237C24.8452 55.237 25.9407 54.3658 26.9073 53.5971C27.7842 52.8996 28.4768 52.3487 29.9762 52.3487C31.4859 52.3487 32.1819 52.901 33.0629 53.6002C34.0299 54.3672 35.1258 55.237 37.2557 55.237C39.3859 55.237 40.4817 54.3672 41.4488 53.5999C42.3297 52.9007 43.0254 52.3487 44.5352 52.3487C46.0449 52.3487 46.7409 52.901 47.6218 53.6002C48.5889 54.3672 49.6847 55.237 51.8147 55.237C53.954 55.237 55.0536 54.3664 56.0235 53.5982C56.9053 52.9002 57.6019 52.3487 59.1102 52.3487C59.6016 52.3487 60 51.9502 60 51.4588C60 50.9675 59.6016 50.5691 59.1102 50.5691ZM51.7166 38.4336C52.8419 39.6873 53.1479 41.5134 52.4865 43.0928L52.1109 44.0004C48.9914 40.7034 42.6248 34.7219 35.3304 32.1358C33.8947 31.6242 32.3964 31.3328 30.8884 31.2466V25.2457C32.1914 25.3247 33.4944 25.5912 34.7381 26.0354C42.4574 28.7796 49.1797 35.6203 51.7166 38.4336ZM25.0545 8.1094C25.0545 7.24073 25.7554 6.53986 26.6241 6.53986H33.3759C34.2446 6.53986 34.9455 7.24073 34.9455 8.1094V12.5415H25.0545V8.1094ZM14.0087 17.4277C14.0087 15.72 15.4006 14.3282 17.1181 14.3282H42.8918C44.5994 14.3282 45.9913 15.72 45.9913 17.4277V30.5934C42.9513 28.1621 39.2769 25.7609 35.3305 24.3573C33.6128 23.7552 31.8064 23.4492 30 23.4492C28.1936 23.4492 26.3872 23.7552 24.6695 24.3573C20.7231 25.7609 17.0487 28.1621 14.0087 30.5934V17.4277ZM8.28343 38.4336C10.8203 35.6203 17.5525 28.7796 25.2717 26.0354C26.5155 25.5912 27.8086 25.3247 29.1116 25.2457V31.2466C27.6036 31.3328 26.1053 31.6242 24.6696 32.1358C17.3849 34.7219 11.0183 40.7034 7.88899 44.0005L7.51345 43.0927C6.8521 41.5134 7.1581 39.6873 8.28343 38.4336ZM25.7994 52.2044C24.919 52.9045 24.2238 53.4574 22.7127 53.4574C21.203 53.4574 20.507 52.905 19.6261 52.2058C18.6589 51.4389 17.5631 50.5691 15.4332 50.5691C13.3259 50.5691 12.2318 51.4195 11.2734 52.1815L8.64119 45.8187C9.95768 44.3786 12.1104 42.1857 14.8181 39.9834C17.7795 37.5748 21.4022 35.186 25.2619 33.8139C26.5086 33.3715 27.808 33.116 29.1116 33.0328V50.6269C27.5434 50.8267 26.6218 51.5503 25.7994 52.2044ZM44.5352 50.5691C42.4053 50.5691 41.3094 51.4388 40.3423 52.2058C39.4614 52.905 38.7654 53.4574 37.2556 53.4574C35.746 53.4574 35.0502 52.9053 34.1693 52.2061C33.3522 51.5578 32.4356 50.8424 30.8884 50.6342V33.0327C32.196 33.1156 33.4904 33.3711 34.7381 33.8139C38.5978 35.186 42.2205 37.5748 45.1819 39.9834C47.8856 42.1825 50.0363 44.3724 51.3609 45.8126L48.7182 52.1982C47.7536 51.4329 46.6581 50.5691 44.5352 50.5691Z"
				fill="currentColor" />
		</g>
		<defs>
			<clipPath id="clip0_10_3821">
				<rect width="60" height="60" fill="white" />
			</clipPath>
		</defs>
	</symbol>
	<symbol id="home-services-icon_03" viewBox="0 0 60 60" fill="none">
		<g clip-path="url(#clip0_10_3827)">
			<path
				d="M59.977 39.626C59.673 36.99 59.251 34.61 58.724 32.56C58.371 31.136 57.505 29.871 56.287 28.998C53.483 26.978 50.565 25.641 48.631 24.88C50.682 22.665 52.002 19.482 52.002 16C52.002 9.832 47.609 5 42.001 5C36.633 5 32.389 9.431 32.035 15.219C31.38 15.076 30.699 15 30 15C29.301 15 28.621 15.075 27.965 15.219C27.61 9.431 23.367 5 17.999 5C12.391 5 7.99802 9.832 7.99802 16C7.99802 19.482 9.31802 22.665 11.369 24.88C9.43502 25.641 6.51802 26.978 3.71502 28.997C2.49502 29.87 1.62902 31.136 1.27802 32.551C0.749018 34.611 0.327018 36.99 0.0230183 39.627C-0.168982 41.32 0.857018 42.947 2.47002 43.498C4.66902 44.232 8.13402 44.697 12.752 44.893C12.501 46.157 12.24 47.726 12.022 49.627C11.829 51.323 12.859 52.95 14.472 53.497C17.427 54.494 22.651 55 29.998 55C37.345 55 42.569 54.494 45.526 53.497C47.137 52.95 48.168 51.323 47.974 49.626C47.756 47.725 47.495 46.155 47.245 44.893C51.863 44.697 55.328 44.232 57.534 43.496C59.14 42.947 60.167 41.32 59.974 39.626H59.977ZM42.001 7C46.563 7 50.002 10.869 50.002 16C50.002 21.327 46.263 26 42.001 26C41.325 26 40.65 25.883 39.985 25.655C39.865 21.217 37.473 17.517 34.005 15.891C34.054 10.815 37.473 7 42.001 7ZM38 26C38 31.327 34.262 36 30 36C25.738 36 22 31.327 22 26C22 20.869 25.439 17 30 17C34.561 17 38 20.869 38 26ZM17.999 7C22.528 7 25.947 10.815 25.995 15.891C22.527 17.517 20.135 21.217 20.015 25.655C19.35 25.883 18.674 26 17.999 26C13.737 26 9.99802 21.327 9.99802 16C9.99802 10.869 13.437 7 17.999 7ZM3.11002 41.604C2.38502 41.357 1.92202 40.621 2.00902 39.855C2.30302 37.31 2.70802 35.021 3.21702 33.041C3.45502 32.079 4.04502 31.221 4.88002 30.622C8.06002 28.332 11.387 26.978 13.073 26.378C14.538 27.402 16.22 28.001 17.998 28.001C18.71 28.001 19.418 27.895 20.117 27.706C20.467 30.513 21.659 33.034 23.37 34.881C21.436 35.643 18.517 36.981 15.716 38.998C14.499 39.871 13.635 41.137 13.286 42.546C13.256 42.658 13.225 42.787 13.193 42.912C7.46902 42.69 4.54902 42.084 3.11002 41.604ZM44.887 51.603C42.997 52.241 38.88 53 29.999 53C21.118 53 17.001 52.24 15.113 51.603C14.386 51.357 13.922 50.621 14.009 49.855C14.38 46.629 14.872 44.376 15.224 43.041C15.462 42.078 16.051 41.22 16.883 40.622C20.06 38.335 23.387 36.98 25.075 36.378C26.54 37.401 28.222 38.001 29.999 38.001C31.776 38.001 33.459 37.402 34.923 36.378C36.611 36.98 39.939 38.335 43.116 40.623C43.947 41.22 44.536 42.078 44.778 43.056C45.126 44.377 45.618 46.63 45.989 49.855C46.076 50.622 45.611 51.358 44.886 51.604L44.887 51.603ZM56.896 41.602C55.45 42.084 52.53 42.69 46.805 42.912C46.775 42.792 46.744 42.668 46.716 42.56C46.363 41.136 45.499 39.871 44.283 38.998C41.481 36.981 38.562 35.642 36.628 34.881C38.338 33.034 39.53 30.513 39.881 27.706C40.58 27.894 41.288 28.001 42 28.001C43.778 28.001 45.46 27.402 46.925 26.378C48.611 26.979 51.939 28.333 55.12 30.623C55.953 31.221 56.543 32.079 56.783 33.05C57.29 35.022 57.695 37.311 57.989 39.855C58.076 40.622 57.613 41.358 56.895 41.603L56.896 41.602Z"
				fill="currentColor" />
		</g>
		<defs>
			<clipPath id="clip0_10_3827">
				<rect width="60" height="60" fill="white" />
			</clipPath>
		</defs>
	</symbol>
	<symbol id="home-services-icon_04" viewBox="0 0 60 60" fill="none">
		<g clip-path="url(#clip0_10_3833)">
			<path
				d="M57 20H55.94C55.321 11.092 46.553 4 35.833 4H34.816C34.9344 3.67974 34.9967 3.34144 35 3C35 2.20435 34.6839 1.44129 34.1213 0.87868C33.5587 0.31607 32.7957 0 32 0C31.2044 0 30.4413 0.31607 29.8787 0.87868C29.3161 1.44129 29 2.20435 29 3C29.0033 3.34144 29.0656 3.67974 29.184 4H28.167C17.447 4 8.679 11.092 8.06 20H7C6.20435 20 5.44129 20.3161 4.87868 20.8787C4.31607 21.4413 4 22.2044 4 23C4 23.7956 4.31607 24.5587 4.87868 25.1213C5.44129 25.6839 6.20435 26 7 26H18.1C18.0398 26.2183 18.0078 26.4435 18.005 26.67V30C18.1623 32.7701 17.4531 35.5204 15.976 37.869C15.711 38.375 15.423 38.928 15.111 39.552C14.3648 41.0258 13.7942 42.5821 13.411 44.189C12.8527 43.8901 12.2147 43.7738 11.5868 43.8564C10.959 43.9391 10.3729 44.2167 9.911 44.65C5.553 48.808 2.981 50.24 1.835 50.725C1.29097 50.9521 0.826373 51.3353 0.499806 51.8261C0.173239 52.3169 -0.000672834 52.8935 1.95624e-06 53.483V57C1.95624e-06 57.7957 0.316072 58.5587 0.878682 59.1213C1.44129 59.6839 2.20435 60 3 60H17.3C17.9811 60.0001 18.642 59.7684 19.174 59.343L21.88 57.177C22.1916 56.9302 22.4505 56.6234 22.6413 56.2747C22.8322 55.926 22.9511 55.5425 22.991 55.147C23.0309 54.7515 22.991 54.3521 22.8737 53.9723C22.7564 53.5925 22.564 53.2401 22.308 52.936C24.4669 50.6168 26.9993 48.6759 29.8 47.194C30.3774 46.9058 30.8925 46.5069 31.316 46.02C33.9814 42.925 36.9814 40.1347 40.261 37.7C41.2996 36.9492 42.0062 35.8245 42.232 34.563C43.239 29.263 45.637 26.685 46.374 25.997H57C57.7957 25.997 58.5587 25.6809 59.1213 25.1183C59.6839 24.5557 60 23.7926 60 22.997C60 22.2014 59.6839 21.4383 59.1213 20.8757C58.5587 20.3131 57.7957 19.997 57 19.997V20ZM31 3C31 2.80222 31.0587 2.60888 31.1685 2.44443C31.2784 2.27998 31.4346 2.15181 31.6173 2.07612C31.8 2.00043 32.0011 1.98063 32.1951 2.01921C32.3891 2.0578 32.5673 2.15304 32.7071 2.29289C32.847 2.43275 32.9422 2.61093 32.9808 2.80491C33.0194 2.99889 32.9996 3.19996 32.9239 3.38268C32.8482 3.56541 32.72 3.72159 32.5556 3.83147C32.3911 3.94135 32.1978 4 32 4C31.7348 4 31.4804 3.89464 31.2929 3.70711C31.1054 3.51957 31 3.26522 31 3ZM28.167 6H35.833C45.442 6 53.311 12.2 53.939 20H10.061C10.689 12.2 18.558 6 28.167 6ZM20.63 55.614L17.923 57.781C17.7461 57.9224 17.5265 57.9997 17.3 58H3C2.73479 58 2.48043 57.8946 2.2929 57.7071C2.10536 57.5196 2 57.2652 2 57V53.483C1.99923 53.2877 2.05626 53.0965 2.16391 52.9335C2.27157 52.7705 2.42504 52.643 2.605 52.567C4.158 51.911 6.924 50.257 11.282 46.099C11.4721 45.918 11.7246 45.8174 11.987 45.818C12.1168 45.8175 12.2455 45.8425 12.3656 45.8918C12.4857 45.941 12.5949 46.0135 12.687 46.105L20.711 54.128C20.8103 54.2275 20.8874 54.3468 20.9375 54.4781C20.9875 54.6094 21.0094 54.7497 21.0015 54.89C20.9937 55.0303 20.9564 55.1674 20.892 55.2923C20.8277 55.4172 20.7377 55.5272 20.628 55.615L20.63 55.614ZM40.268 34.194C40.1355 34.9512 39.7143 35.6273 39.093 36.08C35.6882 38.6012 32.5735 41.4922 29.806 44.7C29.5544 44.9897 29.2487 45.2275 28.906 45.4C25.923 46.9759 23.2231 49.0375 20.917 51.5L15.141 45.724C15.4541 43.8854 16.0474 42.1057 16.9 40.447C17.206 39.834 17.489 39.291 17.749 38.794C19.3761 36.1598 20.1614 33.092 20 30V26.67C20.0003 26.4924 20.0709 26.3221 20.1965 26.1965C20.3221 26.0709 20.4924 26.0003 20.67 26C21.1321 26.0008 21.5802 26.1584 21.941 26.447C22.2967 26.7303 22.5407 27.1302 22.63 27.576C22.8618 28.703 22.9857 29.8495 23 31C22.9674 32.4139 22.8405 33.824 22.62 35.221C22.5385 35.8164 22.5854 36.4223 22.7576 36.998C22.9298 37.5737 23.2233 38.1058 23.6184 38.5586C24.0135 39.0114 24.501 39.3743 25.048 39.6229C25.5951 39.8716 26.1891 40.0001 26.79 40C27.811 39.9994 28.7976 39.6309 29.569 38.962L35.899 33.412C36.4954 32.892 36.9581 32.2362 37.248 31.5C38.429 28.565 39.887 26.529 41.178 26H43.7C41.9358 28.4281 40.7608 31.2334 40.268 34.194ZM35.939 26H38.084C36.9537 27.4458 36.0454 29.0522 35.389 30.766C35.2164 31.2066 34.939 31.5986 34.581 31.908L32.415 33.808C32.631 32.976 32.828 32.108 32.986 31.166C33.3293 29.1493 34.3755 27.3192 35.939 26ZM31.014 30.834C30.7264 32.7727 30.1805 34.6641 29.391 36.458L28.256 37.458C27.8045 37.8301 27.2275 38.015 26.6438 37.9746C26.0601 37.9343 25.514 37.6717 25.118 37.241C24.9115 37.0051 24.7583 36.7275 24.6689 36.427C24.5795 36.1266 24.556 35.8104 24.6 35.5C24.8346 34.0107 24.9683 32.5073 25 31C24.9852 29.7176 24.8482 28.4395 24.591 27.183C24.5049 26.7665 24.3512 26.3669 24.136 26H33.19C32.0638 27.3991 31.3146 29.0633 31.014 30.834ZM57 24H7C6.73479 24 6.48043 23.8946 6.2929 23.7071C6.10536 23.5196 6 23.2652 6 23C6 22.7348 6.10536 22.4804 6.2929 22.2929C6.48043 22.1054 6.73479 22 7 22H57C57.2652 22 57.5196 22.1054 57.7071 22.2929C57.8947 22.4804 58 22.7348 58 23C58 23.2652 57.8947 23.5196 57.7071 23.7071C57.5196 23.8946 57.2652 24 57 24Z"
				fill="currentColor" />
			<path
				d="M27.991 8C21.355 8.057 15.51 11.306 13.101 16.276C12.9852 16.5147 12.969 16.7896 13.056 17.0402C13.1429 17.2909 13.3258 17.4967 13.5645 17.6125C13.8032 17.7283 14.0781 17.7445 14.3287 17.6575C14.5794 17.5706 14.7852 17.3877 14.901 17.149C16.951 12.923 22.219 10.049 28.011 10C28.2757 9.9971 28.5284 9.88936 28.7138 9.70041C28.8992 9.51146 29.0021 9.2567 29 8.992C28.9948 8.7276 28.8863 8.47575 28.6977 8.29035C28.5091 8.10495 28.2555 8.00073 27.991 8Z"
				fill="currentColor" />
		</g>
		<defs>
			<clipPath id="clip0_10_3833">
				<rect width="60" height="60" fill="white" />
			</clipPath>
		</defs>
	</symbol>
	<symbol id="home-services-icon_05" viewBox="0 0 60 60" fill="none">
		<g clip-path="url(#clip0_10_3840)">
			<path
				d="M59.2809 29.1359L35.3012 24.6988L30.8641 0.718945C30.787 0.302344 30.4237 0 30 0C29.5763 0 29.213 0.302344 29.1359 0.718945L24.6988 24.6988L0.719063 29.1359C0.302344 29.213 0 29.5764 0 30C0 30.4236 0.302344 30.787 0.718945 30.8641L24.6987 35.3012L29.1357 59.2811C29.213 59.6977 29.5763 60 30 60C30.4237 60 30.787 59.6977 30.8641 59.2811L35.3012 35.3012L59.2809 30.8641C59.6977 30.787 60 30.4236 60 30C60 29.5764 59.6977 29.213 59.2809 29.1359ZM30 5.70902L33.5987 25.1582L29.9978 28.7571L26.4012 25.1585L30 5.70902ZM5.70914 30L25.1582 26.4013L28.755 30L25.1583 33.5987L5.70914 30ZM30 54.291L26.4013 34.8417L30 31.245L33.5987 34.8417L30 54.291ZM34.8415 33.5987L31.2429 30.0021L34.8418 26.4012L54.291 30L34.8415 33.5987Z"
				fill="currentColor" />
			<path
				d="M48.4985 11.4992C48.2127 11.2135 47.769 11.1595 47.4228 11.3683L36.843 17.7566C36.4274 18.0075 36.294 18.5478 36.5449 18.9633C36.7956 19.3787 37.3358 19.512 37.7514 19.2613L45.2856 14.712L40.6656 22.3634C40.4147 22.7789 40.5481 23.3192 40.9636 23.5701C41.1058 23.6559 41.2624 23.6966 41.4171 23.6966C41.7148 23.6966 42.0052 23.5453 42.1702 23.272L48.6293 12.5748C48.8383 12.2288 48.7842 11.7849 48.4985 11.4992Z"
				fill="currentColor" />
			<path
				d="M23.4553 41.0315C23.2045 40.6161 22.6642 40.4828 22.2486 40.7336L14.7144 45.283L19.3344 37.6314C19.5853 37.2159 19.452 36.6757 19.0364 36.4248C18.6209 36.1741 18.0806 36.3073 17.8298 36.7228L11.3709 47.4199C11.162 47.7659 11.216 48.2098 11.5017 48.4955C11.6712 48.665 11.8963 48.753 12.1235 48.753C12.2795 48.753 12.4366 48.7115 12.5775 48.6266L23.1573 42.2382C23.5728 41.9873 23.7062 41.4471 23.4553 41.0315Z"
				fill="currentColor" />
			<path
				d="M48.6292 47.42L42.2408 36.8402C41.9901 36.4247 41.4498 36.2913 41.0343 36.5421C40.6187 36.793 40.4854 37.3333 40.7363 37.7487L45.2855 45.283L37.6341 40.6629C37.2184 40.4121 36.6783 40.5455 36.4275 40.9609C36.1766 41.3765 36.31 41.9167 36.7255 42.1676L47.4226 48.6267C47.5635 48.7118 47.7206 48.7532 47.8766 48.7532C48.1038 48.7532 48.329 48.6653 48.4984 48.4957C48.7841 48.2099 48.8381 47.766 48.6292 47.42Z"
				fill="currentColor" />
			<path
				d="M23.2745 17.8274L12.5775 11.3683C12.2314 11.1594 11.7875 11.2135 11.5017 11.4992C11.216 11.785 11.162 12.229 11.3709 12.5749L17.7592 23.1547C17.9242 23.4281 18.2146 23.5794 18.5122 23.5794C18.6669 23.5794 18.8236 23.5385 18.9657 23.4528C19.3813 23.2019 19.5146 22.6617 19.2637 22.2461L14.7145 14.7119L22.3659 19.332C22.7815 19.5828 23.3217 19.4495 23.5725 19.0339C23.8234 18.6185 23.69 18.0783 23.2745 17.8274Z"
				fill="currentColor" />
		</g>
		<defs>
			<clipPath id="clip0_10_3840">
				<rect width="60" height="60" fill="white" />
			</clipPath>
		</defs>
	</symbol>
	<symbol id="home-services-icon_06" viewBox="0 0 60 60" fill="none">
		<path
			d="M2.6148 39.8494L11.0461 44.0697C10.5177 45.0325 10.0599 46.0324 9.67639 47.0615C9.54955 47.4069 9.50783 47.7777 9.55475 48.1426C9.60167 48.5074 9.73585 48.8556 9.94593 49.1576C10.156 49.4596 10.4358 49.7065 10.7616 49.8774C11.0873 50.0483 11.4495 50.1382 11.8174 50.1394C12.0906 50.1387 12.3617 50.0909 12.6186 49.9982C13.6449 49.6151 14.642 49.158 15.602 48.6304L19.8205 57.0663C19.9431 57.3086 20.1213 57.5186 20.3405 57.6789C20.5596 57.8393 20.8136 57.9456 21.0817 57.9891C21.1702 58.0025 21.2596 58.0093 21.3491 58.0097C21.8052 58.0078 22.2422 57.8257 22.5645 57.5029L23.7323 56.3361C23.9132 56.1535 24.0514 55.9329 24.1369 55.6904C24.2224 55.4479 24.2531 55.1895 24.2268 54.9337L22.9516 43.4826C24.5896 42.112 26.3744 40.4908 28.3153 38.5452L34.8674 31.9931L46.7972 53.2022C46.9459 53.4678 47.1543 53.6951 47.406 53.8663C47.6576 54.0375 47.9457 54.1478 48.2473 54.1886C48.3381 54.2005 48.4296 54.2064 48.5212 54.2063C48.7795 54.2067 49.0353 54.1558 49.2738 54.0566C49.5122 53.9574 49.7287 53.8119 49.9105 53.6286L51.4756 52.0625C51.7104 51.829 51.8822 51.5399 51.9752 51.2222C52.0682 50.9044 52.0794 50.5682 52.0076 50.245L50.3902 42.8777L53.3446 39.9233C53.9081 39.3581 54.2245 38.5925 54.2245 37.7944C54.2245 36.9963 53.9081 36.2308 53.3446 35.6656L52.6106 34.9335C52.0852 34.411 51.385 34.1013 50.6448 34.064C49.9047 34.0267 49.177 34.2645 48.6016 34.7316L48.0135 32.0502L50.4107 29.653C50.9742 29.0878 51.2907 28.3222 51.2907 27.5241C51.2907 26.726 50.9742 25.9605 50.4107 25.3953L49.6768 24.6632C49.2374 24.2262 48.6736 23.9358 48.0627 23.8317C47.4518 23.7276 46.8236 23.8149 46.2643 24.0817L45.6369 21.2236L51.1194 15.7411C55.8352 11.0253 59.374 5.01456 57.0095 2.65197C54.6451 0.289377 48.6381 3.82999 43.9204 8.54208L38.4435 14.0302L35.5854 13.4038C35.852 12.8444 35.9394 12.2164 35.8354 11.6056C35.7315 10.9947 35.4414 10.4309 35.0048 9.99123L34.2709 9.25731C33.7061 8.69341 32.9406 8.37668 32.1425 8.37668C31.3444 8.37668 30.5789 8.69341 30.0141 9.25731L27.6179 11.6545L24.9355 11.0664C25.4024 10.491 25.6401 9.76328 25.6028 9.02321C25.5655 8.28314 25.2559 7.58298 24.7336 7.0574L23.9996 6.32347C23.4345 5.76025 22.6691 5.444 21.8713 5.444C21.0734 5.444 20.308 5.76025 19.7429 6.32347L16.7885 9.27788L9.42115 7.66043C9.09808 7.5882 8.76196 7.59912 8.44426 7.69216C8.12655 7.7852 7.83764 7.95732 7.60457 8.19241L6.03854 9.7575C5.82342 9.97284 5.66102 10.235 5.56404 10.5235C5.46705 10.8121 5.43812 11.1191 5.47949 11.4206C5.52086 11.7222 5.63142 12.0101 5.80253 12.2618C5.97363 12.5136 6.20064 12.7223 6.46581 12.8718L27.673 24.7997L21.121 31.3546C19.18 33.2955 17.5551 35.0803 16.1845 36.7174L4.72682 35.4347C4.47304 35.4105 4.21705 35.4429 3.9773 35.5295C3.73755 35.6162 3.51999 35.7549 3.34031 35.9358L2.17351 37.0979C1.98031 37.2898 1.83556 37.5249 1.75123 37.7838C1.66689 38.0427 1.6454 38.318 1.68852 38.5868C1.73164 38.8557 1.83813 39.1104 1.9992 39.33C2.16027 39.5495 2.37129 39.7276 2.6148 39.8494ZM22.3644 55.0553L21.394 56.0248L17.2213 47.6814C18.6053 46.8187 19.942 45.8824 21.2257 44.8766L22.3644 55.0553ZM49.6768 36.2555C49.8908 36.0422 50.1806 35.9225 50.4827 35.9225C50.7848 35.9225 51.0747 36.0422 51.2886 36.2555L52.0226 36.9876C52.2359 37.2017 52.3557 37.4917 52.3557 37.794C52.3557 38.0963 52.2359 38.3862 52.0226 38.6004L49.9143 40.7086L49.0728 36.8614L49.6768 36.2555ZM46.742 25.9852C46.9559 25.7714 47.246 25.6513 47.5484 25.6513C47.8508 25.6513 48.1409 25.7714 48.3548 25.9852L49.0887 26.7173C49.3016 26.9317 49.4211 27.2215 49.4211 27.5237C49.4211 27.8258 49.3016 28.1157 49.0887 28.3301L47.5377 29.8811L46.6962 26.0329L46.742 25.9852ZM50.1817 50.647C50.1852 50.6637 50.1845 50.681 50.1796 50.6974C50.1747 50.7137 50.1657 50.7285 50.1536 50.7405L48.5885 52.3066L48.4268 52.285L36.2408 30.6197L44.0672 22.7933L50.1817 50.647ZM31.3361 10.5784C31.5503 10.3655 31.84 10.2461 32.142 10.2461C32.444 10.2461 32.7337 10.3655 32.9479 10.5784L33.6819 11.3123C33.8957 11.5262 34.0158 11.8163 34.0158 12.1187C34.0158 12.4211 33.8957 12.7112 33.6819 12.9251L33.6333 12.9746L29.786 12.1332L31.3361 10.5784ZM21.0649 7.64454C21.279 7.43118 21.569 7.31139 21.8713 7.31139C22.1735 7.31139 22.4635 7.43118 22.6776 7.64454L23.4116 8.37847C23.6249 8.59244 23.7446 8.88225 23.7446 9.18438C23.7446 9.48651 23.6249 9.77632 23.4116 9.9903L22.8048 10.5971L18.9566 9.75563L21.0649 7.64454ZM7.38299 11.2403L7.36055 11.0786L8.92657 9.51348C8.93806 9.50065 8.95287 9.49124 8.96937 9.48629C8.98586 9.48134 9.00341 9.48104 9.02006 9.48543L36.8728 15.5999L29.0464 23.4263L7.38299 11.2403ZM22.443 32.6738L45.2471 9.87063C49.3683 5.74942 53.2875 3.75706 54.9779 3.75706C55.235 3.73428 55.4907 3.81316 55.6903 3.97677C56.5963 4.88273 54.7068 9.50974 49.8002 14.42L26.9971 37.2232C19.4128 44.8093 14.3352 47.3766 11.9876 48.2302C11.9114 48.2613 11.8278 48.2693 11.7471 48.2532C11.6664 48.2371 11.5922 48.1977 11.5338 48.1399C11.4753 48.082 11.4351 48.0082 11.4182 47.9277C11.4013 47.8472 11.4085 47.7635 11.4387 47.687C12.2914 45.3357 14.8597 40.2571 22.443 32.6738ZM4.61276 37.3027L14.7924 38.4414C13.7863 39.7246 12.85 41.061 11.9876 42.4448L3.6423 38.2731L4.61276 37.3027Z"
			fill="currentColor" />

	</symbol>
	<symbol id="home-tips-icon_01" viewBox="0 0 44 44" fill="none">
		<g clip-path="url(#clip0_10_3913)">
			<path
				d="M22 39.1875C17.4212 39.1875 13.1106 37.4068 9.86561 34.1756C9.59749 33.9075 9.59749 33.4743 9.86561 33.2062C10.1337 32.9381 10.5669 32.9381 10.835 33.2062C13.8187 36.1831 17.7856 37.8193 21.9931 37.8193C30.7106 37.8193 37.8056 30.7243 37.8056 22.0068C37.8056 13.2893 30.7106 6.19434 21.9931 6.19434C13.2756 6.19434 6.18061 13.2893 6.18061 22.0068C6.18061 24.5643 6.77186 26.9981 7.93374 29.2531C8.10561 29.59 7.97499 30.0025 7.63811 30.1812C7.30124 30.3531 6.88874 30.2225 6.70999 29.8856C5.45874 27.4725 4.79874 24.7431 4.79874 22.0068C4.79874 12.5262 12.5056 4.81934 21.9862 4.81934C31.4669 4.81934 39.1737 12.5262 39.1737 22.0068C39.1737 31.4875 31.4669 39.1943 21.9862 39.1943L22 39.1875Z"
				fill="currentColor" />
			<path
				d="M13.255 26.125C12.9113 26.125 12.6156 25.8638 12.5744 25.5131C12.4438 24.365 12.375 23.1825 12.375 22C12.375 12.3612 16.6031 4.8125 22 4.8125C26.7506 4.8125 30.745 10.8556 31.5012 19.1881C31.5356 19.5662 31.2537 19.9031 30.8756 19.9375C30.4906 19.9719 30.1606 19.69 30.1262 19.3119C29.4456 11.8319 25.9531 6.1875 22 6.1875C17.4488 6.1875 13.75 13.2825 13.75 22C13.75 23.1275 13.8119 24.2619 13.9425 25.3619C13.9838 25.74 13.7156 26.0769 13.3375 26.125C13.31 26.125 13.2825 26.125 13.2619 26.125H13.255Z"
				fill="currentColor" />
			<path
				d="M15.125 22.6875H5.5C5.12187 22.6875 4.8125 22.3781 4.8125 22C4.8125 21.6219 5.12187 21.3125 5.5 21.3125H15.125C15.5031 21.3125 15.8125 21.6219 15.8125 22C15.8125 22.3781 15.5031 22.6875 15.125 22.6875Z"
				fill="currentColor" />
			<path
				d="M22 15.125C17.1187 15.125 12.3956 14.3756 8.70374 13.0213L9.17811 11.7288C12.7256 13.035 17.2837 13.75 22.0069 13.75C26.73 13.75 31.2812 13.035 34.8356 11.7288L35.31 13.0213C31.6112 14.3756 26.8881 15.125 22.0137 15.125H22Z"
				fill="currentColor" />
			<path
				d="M35.0625 32.3125C34.9869 32.3125 34.9044 32.2988 34.8287 32.2713C32.8487 31.5425 30.5869 30.9994 28.0981 30.6557C27.72 30.6007 27.4587 30.2569 27.5137 29.8788C27.5619 29.5007 27.9056 29.2394 28.2906 29.2944C30.8756 29.6519 33.2406 30.2157 35.31 30.9788C35.6675 31.1094 35.8462 31.5013 35.7156 31.8588C35.6125 32.1338 35.3512 32.3125 35.0694 32.3125H35.0625Z"
				fill="currentColor" />
			<path
				d="M22 21.3125C21.6219 21.3125 21.3125 21.0031 21.3125 20.625V5.5C21.3125 5.12187 21.6219 4.8125 22 4.8125C22.3781 4.8125 22.6875 5.12187 22.6875 5.5V20.625C22.6875 21.0031 22.3781 21.3125 22 21.3125Z"
				fill="currentColor" />
			<path
				d="M4.52376 33C2.43376 33 0.715015 32.56 0.165015 31.2881C-0.453735 29.8512 0.632514 27.94 3.38939 25.6025C3.67814 25.355 4.11126 25.3962 4.35876 25.685C4.60626 25.9737 4.56501 26.4068 4.27626 26.6543C1.78064 28.765 1.16876 30.1537 1.42314 30.745C1.81501 31.6525 4.58564 32.0718 9.90001 30.9581C10.2713 30.8825 10.6356 31.1162 10.7113 31.4875C10.7869 31.8587 10.5531 32.2231 10.1819 32.2987C8.33939 32.6837 6.29064 33 4.51689 33H4.52376Z"
				fill="currentColor" />
			<path
				d="M37.4344 20.6249C37.2144 20.6249 37.0012 20.5218 36.8637 20.3293C36.6506 20.0131 36.7262 19.5868 37.0425 19.3737C41.3875 16.3831 42.9481 14.1487 42.5631 13.2618C42.3156 12.6912 40.9544 12.1756 37.8675 12.4574C37.4825 12.4849 37.1525 12.2099 37.1181 11.8318C37.0837 11.4537 37.3656 11.1168 37.7437 11.0824C41.1812 10.7662 43.2231 11.3162 43.8281 12.7118C44.8319 15.0424 41.1194 18.2324 37.8194 20.5012C37.7025 20.5837 37.565 20.6249 37.4275 20.6249H37.4344Z"
				fill="currentColor" />
			<path
				d="M13.1587 33.6394C12.4437 33.6394 11.825 33.4331 11.5569 32.8075C11.2819 32.1681 11.6187 31.5425 11.9625 31.1162L9.64562 28.3525C9.50812 28.1875 9.45312 27.9675 9.50125 27.7544C9.54937 27.5412 9.70062 27.3694 9.9 27.28L11.77 26.4687C11.9419 26.3931 12.1412 26.3931 12.32 26.4687L16.0806 28.0981L32.1406 21.12C32.3744 21.0169 32.615 20.9412 32.8556 20.8862C35.1794 20.3775 36.8294 20.8175 37.3794 22.0894C37.5581 22.5019 37.6819 23.705 36.1281 24.3856L17.6344 32.4225C17.5862 32.4431 16.4244 32.945 15.1662 33.3025C14.5475 33.4744 13.8119 33.6462 13.1656 33.6462L13.1587 33.6394ZM12.8425 32.2712C13.2687 32.4362 15.2694 31.9412 17.0775 31.1506L35.5712 23.1137C35.9356 22.9556 36.1419 22.7562 36.1006 22.5981C35.805 21.9175 34.32 21.9656 33.1444 22.22C32.9862 22.2544 32.8281 22.3025 32.6769 22.3712L16.3419 29.4662C16.17 29.5419 15.9706 29.5419 15.7919 29.4662L12.0312 27.8369L11.2819 28.16L13.3925 30.6831C13.6262 30.9581 13.6056 31.3706 13.3444 31.6181C12.9869 31.9619 12.87 32.1681 12.8356 32.2575L12.8425 32.2712Z"
				fill="currentColor" />
			<path
				d="M20.9619 27.4107C20.845 27.4107 20.7281 27.3832 20.625 27.3213L15.5994 24.5094C15.3725 24.3788 15.235 24.1382 15.2487 23.8769C15.2625 23.6157 15.4206 23.3819 15.6612 23.2788L18.6037 22C18.755 21.9382 18.92 21.9244 19.0712 21.9725L25.9394 23.9869C26.2144 24.0694 26.4137 24.3169 26.4344 24.6057C26.455 24.8944 26.29 25.1625 26.0219 25.2794L21.2369 27.3625C21.1475 27.4038 21.0581 27.4175 20.9619 27.4175V27.4107ZM17.4831 23.9869L21.0031 25.9532L23.7394 24.7638L18.9269 23.3544L17.4831 23.98V23.9869Z"
				fill="currentColor" />
			<path
				d="M20.1506 37.7575C19.9925 37.7575 19.8344 37.7025 19.7106 37.5993C19.5112 37.4343 19.4219 37.1731 19.4769 36.9187L21.0237 30.0987C21.1062 29.7275 21.4775 29.4937 21.8487 29.5831C22.22 29.6656 22.4537 30.0368 22.3644 30.4081L21.12 35.9012L22.5569 35.2756L25.5406 27.6993C25.6781 27.3487 26.0769 27.1768 26.4344 27.3143C26.785 27.4518 26.9637 27.8506 26.8194 28.2081L23.7256 36.0456C23.6569 36.2175 23.5262 36.3481 23.3612 36.4237L20.4187 37.7025C20.3294 37.7437 20.24 37.7575 20.1437 37.7575H20.1506Z"
				fill="currentColor" />
		</g>
		<defs>
			<clipPath id="clip0_10_3913">
				<rect width="44" height="44" fill="white" />
			</clipPath>
		</defs>

	</symbol>
	<symbol id="home-benefits-icon_01" viewBox="0 0 44 44" fill="none">
		<g clip-path="url(#clip0_10_4178)">
			<path
				d="M40.5291 5.46412C38.2151 3.0059 35.0182 1.56928 31.6436 1.47119C28.269 1.3731 24.9941 2.62159 22.5412 4.94125L21.9846 5.46705C17.164 0.35422 9.11132 0.117334 3.99849 4.93795C-1.11435 9.75857 -1.35123 17.8112 3.46939 22.9241L4.72265 24.2521C4.19347 25.4773 4.36259 26.8923 5.16561 27.9583C5.96863 29.0243 7.28199 29.5773 8.60565 29.4067C8.38155 30.5732 8.7318 31.7762 9.54699 32.6401C10.3622 33.5039 11.5429 33.9233 12.7204 33.7671C12.4963 34.9334 12.8464 36.1362 13.6615 37C14.4766 37.8637 15.6571 38.283 16.8344 38.1268C16.5427 39.7107 17.3019 41.3027 18.7163 42.073C20.1307 42.8434 21.8799 42.6176 23.0523 41.5133C27.2375 37.5621 27.1062 37.7594 27.5015 37.0935C28.7255 37.6958 30.1817 37.5764 31.2912 36.7826C32.4008 35.9889 32.9841 34.6493 32.8093 33.2963C33.9755 33.5149 35.1759 33.1619 36.0381 32.3468C36.9004 31.5317 37.3202 30.3531 37.1675 29.1765C38.7608 29.4691 40.3605 28.6985 41.1246 27.2701C41.8888 25.8418 41.6421 24.0834 40.5145 22.9204C45.158 18.0303 45.1644 10.362 40.5291 5.46412ZM6.50172 27.2801C5.64494 26.3697 5.68626 24.9377 6.59412 24.0783L10.4075 20.4777C11.3193 19.6354 12.7393 19.6842 13.5911 20.5871C14.443 21.49 14.4092 22.9104 13.5153 23.7718L9.70199 27.3725C8.79229 28.2295 7.36045 28.1881 6.50172 27.2801ZM10.6165 31.6405C9.75885 30.7304 9.8002 29.2978 10.7089 28.4387L14.5222 24.8381C15.4316 23.98 16.8644 24.0217 17.7225 24.9312C18.5805 25.8406 18.5388 27.2734 17.6293 28.1315L13.816 31.7329C12.9052 32.588 11.4743 32.545 10.6165 31.6368V31.6405ZM14.7305 36.0001C13.8739 35.0898 13.9156 33.6581 14.8236 32.7991L18.6369 29.1985C19.5522 28.3949 20.9391 28.4596 21.7757 29.3447C22.6123 30.2298 22.5986 31.6182 21.7448 32.4867L17.9315 36.0874C17.0224 36.9461 15.5893 36.9054 14.7305 35.9965V36.0001ZM22.0455 40.4529C21.4571 41.0081 20.6173 41.2072 19.8424 40.9753C19.0675 40.7434 18.4751 40.1157 18.2885 39.3286C18.1018 38.5415 18.3493 37.7147 18.9376 37.1595L22.7509 33.5581C23.6628 32.7159 25.0827 32.7647 25.9346 33.6676C26.7864 34.5705 26.7526 35.9909 25.8588 36.8523L22.0455 40.4529ZM39.391 27.1671C38.9551 27.5805 38.3725 27.8032 37.772 27.7858C37.1716 27.7685 36.6027 27.5126 36.1915 27.0747L26.4191 16.7201C26.141 16.4254 25.6768 16.4119 25.3821 16.69C25.0875 16.968 25.074 17.4323 25.3521 17.7269L35.1267 28.0809C35.682 28.669 35.8813 29.5088 35.6496 30.2838C35.4178 31.0588 34.7902 31.6513 34.0032 31.8381C33.2162 32.0249 32.3893 31.7776 31.834 31.1895L22.0601 20.8341C21.8803 20.6435 21.6124 20.5633 21.3574 20.6237C21.1024 20.6842 20.899 20.8761 20.8239 21.1272C20.7487 21.3782 20.8133 21.6503 20.9931 21.8409L30.7641 32.1934C31.5356 33.0103 31.5904 34.2697 30.8928 35.1505C30.1951 36.0314 28.9566 36.2664 27.9847 35.7024C28.1369 34.6548 27.8333 33.5922 27.1506 32.7831C26.468 31.974 25.4716 31.4959 24.4134 31.4696C23.6067 31.4483 23.9001 31.7534 23.9206 30.9467C23.9498 29.9575 23.5846 28.9972 22.9053 28.2774C22.2261 27.5576 21.2887 27.1374 20.2994 27.1092C19.4927 27.0835 19.7824 27.4025 19.8066 26.5863C19.8354 25.5971 19.4699 24.6369 18.7906 23.9172C18.1114 23.1975 17.1739 22.7772 16.1847 22.7488C15.3729 22.7261 15.6677 23.0487 15.6919 22.2259C15.7314 20.7194 14.8618 19.3368 13.4868 18.72C12.1117 18.1033 10.5008 18.3734 9.40205 19.4048C4.15872 24.3541 5.96785 22.6483 5.57699 23.0172L4.53712 21.9172C0.272782 17.3938 0.482745 10.27 5.00609 6.00568C9.52943 1.74135 16.6532 1.95131 20.9176 6.47465L14.9116 12.1463C14.3421 12.6924 14.0068 13.4383 13.9766 14.2267C13.9033 17.2385 18.3832 19.1349 21.1207 16.5441L26.5943 11.3785C26.7357 11.2448 26.9244 11.1728 27.1189 11.1783C27.3133 11.1838 27.4977 11.2663 27.6313 11.4078C29.0701 12.9324 38.1033 22.5053 39.4834 23.9669C39.8957 24.4034 40.1177 24.9859 40.1003 25.5861C40.083 26.1864 39.8278 26.7551 39.391 27.1671ZM39.5164 21.8651L28.6975 10.4009C28.297 9.97662 27.7443 9.72882 27.161 9.71204C26.5778 9.69527 26.0117 9.91088 25.5875 10.3115L20.1131 15.4785C19.5317 16.0273 18.7557 16.3219 17.9566 16.2973C17.1575 16.2727 16.4011 15.9308 15.8547 15.3473C15.5795 15.0556 15.4318 14.6664 15.444 14.2656C15.4563 13.8648 15.6275 13.4854 15.9199 13.2111L23.5466 6.00752C27.9635 1.82612 34.903 1.90891 39.2189 6.19451C43.5348 10.4801 43.6665 17.4188 39.5164 21.8651Z"
				fill="currentColor" />
		</g>
		<defs>
			<clipPath id="clip0_10_4178">
				<rect width="44" height="44" fill="white" />
			</clipPath>
		</defs>

	</symbol>
	<symbol id="home-benefits-icon_02" viewBox="0 0 44 44" fill="none">
		<path
			d="M41.8096 14.0917L35.3932 5.10056C35.2639 4.91975 35.0556 4.8125 34.8336 4.8125H9.16643C8.94437 4.8125 8.73605 4.91975 8.6068 5.10056L2.19037 14.0917C2.01162 14.3426 2.02124 14.6809 2.21374 14.9215L21.4637 38.9304C21.5944 39.0926 21.7917 39.1875 22 39.1875C22.2083 39.1875 22.4056 39.0926 22.5362 38.9304L41.7862 14.9215C41.9787 14.6809 41.9884 14.3426 41.8096 14.0917ZM22 6.67906L27.0765 13.75H16.9228L22 6.67906ZM15.5829 13.2584L10.5064 6.1875H20.6594L15.5829 13.2584ZM23.3399 6.1875H33.4936L28.4164 13.2584L23.3399 6.1875ZM27.522 15.125L22 35.8318L16.478 15.125H27.522ZM20.4944 35.5231L4.13943 15.125H15.0549L20.4944 35.5231ZM28.9444 15.125H39.8606L23.5049 35.5238L28.9444 15.125ZM29.7564 13.75L34.8322 6.68113L39.8764 13.75H29.7564ZM9.16849 6.68113L14.2429 13.75H4.12362L9.16849 6.68113Z"
			fill="currentColor" />
	</symbol>
	<symbol id="home-benefits-icon_03" viewBox="0 0 44 44" fill="none">
		<g clip-path="url(#clip0_10_4186)">
			<path
				d="M38.2147 23.4746C39.1158 22.8622 39.7968 21.9771 40.1578 20.9491C40.5188 19.9212 40.5408 18.8046 40.2204 17.7632C39.9001 16.7219 39.2543 15.8107 38.3779 15.1634C37.5016 14.5161 36.4408 14.1668 35.3512 14.1668C34.2617 14.1668 33.2009 14.5161 32.3246 15.1634C31.4482 15.8107 30.8024 16.7219 30.4821 17.7632C30.1617 18.8046 30.1837 19.9212 30.5447 20.9491C30.9057 21.9771 31.5867 22.8622 32.4878 23.4746C31.5602 23.7993 30.6952 24.2806 29.9303 24.8977C28.6171 23.7521 27.0715 22.9043 25.3997 22.4124C26.7553 21.6596 27.8225 20.4778 28.4338 19.0528C29.045 17.6277 29.1657 16.0399 28.7768 14.5389C28.388 13.0378 27.5116 11.7083 26.2854 10.7592C25.0591 9.81013 23.5524 9.29517 22.0017 9.29517C20.4511 9.29517 18.9443 9.81013 17.7181 10.7592C16.4918 11.7083 15.6154 13.0378 15.2266 14.5389C14.8377 16.0399 14.9584 17.6277 15.5697 19.0528C16.1809 20.4778 17.2481 21.6596 18.6038 22.4124C16.9319 22.9043 15.3863 23.7521 14.0731 24.8977C13.3083 24.2806 12.4432 23.7993 11.5156 23.4746C12.4178 22.8621 13.0998 21.9765 13.4614 20.9478C13.8231 19.9191 13.8454 18.8015 13.525 17.7592C13.2046 16.7169 12.5584 15.8047 11.6814 15.1568C10.8043 14.5088 9.74263 14.1592 8.65219 14.1592C7.56175 14.1592 6.50004 14.5088 5.62299 15.1568C4.74595 15.8047 4.09978 16.7169 3.77939 17.7592C3.45899 18.8015 3.48127 19.9191 3.84293 20.9478C4.20459 21.9765 4.88658 22.8621 5.78875 23.4746C4.10025 24.0689 2.63721 25.1715 1.60068 26.6309C0.564141 28.0903 0.004971 29.8349 0 31.6249C0 31.8073 0.0724328 31.9821 0.201364 32.1111C0.330295 32.24 0.505164 32.3124 0.6875 32.3124C0.869836 32.3124 1.0447 32.24 1.17364 32.1111C1.30257 31.9821 1.375 31.8073 1.375 31.6249C1.37763 30.2682 1.75951 28.9391 2.47753 27.7879C3.19555 26.6367 4.22112 25.7091 5.43843 25.1099C6.65575 24.5107 8.01633 24.2638 9.36656 24.397C10.7168 24.5302 12.0029 25.0382 13.0797 25.8637C11.0383 28.0868 9.90709 30.9959 9.91031 34.014C9.91031 34.1963 9.98275 34.3712 10.1117 34.5001C10.2406 34.6291 10.4155 34.7015 10.5978 34.7015C10.7801 34.7015 10.955 34.6291 11.0839 34.5001C11.2129 34.3712 11.2853 34.1963 11.2853 34.014C11.3356 31.206 12.4864 28.53 14.49 26.5619C16.4936 24.5939 19.1898 23.4912 21.9983 23.4912C24.8068 23.4912 27.503 24.5939 29.5066 26.5619C31.5101 28.53 32.6609 31.206 32.7113 34.014C32.7113 34.1963 32.7837 34.3712 32.9126 34.5001C33.0415 34.6291 33.2164 34.7015 33.3988 34.7015C33.5811 34.7015 33.756 34.6291 33.8849 34.5001C34.0138 34.3712 34.0863 34.1963 34.0863 34.014C34.0895 30.9959 32.9582 28.0868 30.9169 25.8637C31.9936 25.0372 33.2801 24.5283 34.6309 24.3946C35.9816 24.2609 37.3429 24.5076 38.5608 25.1069C39.7787 25.7062 40.8047 26.6342 41.5229 27.786C42.2411 28.9378 42.6229 30.2676 42.625 31.6249C42.625 31.8073 42.6974 31.9821 42.8264 32.1111C42.9553 32.24 43.1302 32.3124 43.3125 32.3124C43.4948 32.3124 43.6697 32.24 43.7986 32.1111C43.9276 31.9821 44 31.8073 44 31.6249C43.9953 29.8353 43.4366 28.0911 42.4007 26.6317C41.3648 25.1724 39.9025 24.0695 38.2147 23.4746ZM4.92938 19.2499C4.93141 18.5141 5.15148 17.7953 5.56179 17.1845C5.97209 16.5736 6.55423 16.0981 7.23466 15.8179C7.91509 15.5377 8.6633 15.4654 9.38477 15.6102C10.1062 15.755 10.7686 16.1104 11.2882 16.6315C11.8079 17.1525 12.1614 17.8159 12.3042 18.5378C12.447 19.2596 12.3727 20.0076 12.0906 20.6873C11.8085 21.3669 11.3314 21.9478 10.7194 22.3564C10.1074 22.765 9.38805 22.9831 8.65219 22.9831C8.16256 22.9826 7.67782 22.8857 7.22568 22.6978C6.77354 22.5099 6.36286 22.2347 6.01712 21.888C5.67138 21.5413 5.39736 21.1299 5.21072 20.6772C5.02407 20.2246 4.92847 19.7396 4.92938 19.2499ZM16.3762 16.2868C16.379 15.1751 16.7111 14.0892 17.3307 13.1662C17.9503 12.2432 18.8296 11.5245 19.8574 11.101C20.8852 10.6774 22.0156 10.568 23.1055 10.7866C24.1955 11.0051 25.1963 11.5418 25.9814 12.3288C26.7665 13.1159 27.3008 14.1179 27.5167 15.2085C27.7326 16.299 27.6204 17.429 27.1943 18.4558C26.7683 19.4826 26.0475 20.3601 25.123 20.9775C24.1984 21.5948 23.1117 21.9243 22 21.9243C20.509 21.9225 19.0797 21.3294 18.0254 20.2751C16.9712 19.2209 16.3781 17.7915 16.3762 16.3006V16.2868ZM31.625 19.2499C31.625 18.5136 31.8433 17.7939 32.2524 17.1817C32.6615 16.5694 33.2429 16.0923 33.9232 15.8105C34.6034 15.5287 35.3519 15.455 36.0741 15.5987C36.7962 15.7423 37.4596 16.0969 37.9802 16.6175C38.5009 17.1382 38.8554 17.8015 38.9991 18.5237C39.1427 19.2458 39.069 19.9943 38.7872 20.6746C38.5055 21.3549 38.0283 21.9363 37.4161 22.3453C36.8039 22.7544 36.0841 22.9728 35.3478 22.9728C34.3607 22.9718 33.4144 22.5793 32.7164 21.8814C32.0184 21.1834 31.6259 20.237 31.625 19.2499Z"
				fill="currentColor" />
		</g>
		<defs>
			<clipPath id="clip0_10_4186">
				<rect width="44" height="44" fill="white" />
			</clipPath>
		</defs>
	</symbol>
	<symbol id="home-benefits-icon_04" viewBox="0 0 44 44" fill="none">
		<path
			d="M37.0514 15.0513C37.0514 6.7387 30.3127 0 22.0001 0C13.6874 0 6.94874 6.7387 6.94874 15.0513C4.79975 15.3189 2.76782 16.7237 2.76782 19.9848V27.8449C2.76782 31.5241 5.34327 32.862 7.78493 32.862H10.2099C10.6716 32.862 11.046 32.4876 11.046 32.0258V15.8373C11.046 15.3755 10.6716 15.0011 10.2099 15.0011H8.62111C8.62111 7.6122 14.6111 1.6222 22.0001 1.6222C29.389 1.6222 35.379 7.6122 35.379 15.0011H33.7902C33.3285 15.0011 32.9541 15.3755 32.9541 15.8373V32.0008C32.9541 32.4625 33.3285 32.8369 33.7902 32.8369H35.379C35.1449 38.5815 32.3855 39.9278 26.875 40.1703V39.61C26.875 38.6864 26.1263 37.9377 25.2026 37.9377H19.943C19.0194 37.9377 18.2707 38.6864 18.2707 39.61V42.3276C18.2707 43.2513 19.0194 44 19.943 44H25.2194C26.143 44 26.8917 43.2513 26.8917 42.3276V41.8426C32.1931 41.6002 36.7754 40.5047 37.0514 32.7868C39.2004 32.5192 41.2323 31.1144 41.2323 27.8533V19.9932C41.2323 16.7153 39.2087 15.3189 37.0514 15.0513ZM9.37368 16.615V31.1646H7.74312C6.50556 31.1646 4.39838 30.7298 4.39838 27.8198V19.9597C4.39838 17.0749 6.48048 16.615 7.74312 16.615H9.37368ZM25.2194 41.065V42.336H19.943V39.6184H25.2194V41.065ZM39.5599 27.8449C39.5599 30.7298 37.4778 31.1897 36.2152 31.1897H34.6264V16.6735H36.257C37.4945 16.6735 39.6017 17.1083 39.6017 20.0182L39.5599 27.8449Z"
			fill="currentColor" />
	</symbol>
	<symbol id="location" viewBox="0 0 20 20" fill="none">
		<path
			d="M10.5008 18.1659C12.0508 16.8276 16.6667 12.4942 16.6667 8.33342C16.6667 6.56531 15.9643 4.86961 14.714 3.61937C13.4638 2.36913 11.7681 1.66675 10 1.66675C8.23189 1.66675 6.5362 2.36913 5.28595 3.61937C4.03571 4.86961 3.33333 6.56531 3.33333 8.33342C3.33333 12.4942 7.94916 16.8276 9.49917 18.1659C9.64356 18.2745 9.81933 18.3332 10 18.3332C10.1807 18.3332 10.3564 18.2745 10.5008 18.1659Z"
			stroke="currentColor" stroke-width="1.5" stroke-linecap="round" stroke-linejoin="round" />
		<path
			d="M10 10.8333C11.3807 10.8333 12.5 9.71396 12.5 8.33325C12.5 6.95254 11.3807 5.83325 10 5.83325C8.61929 5.83325 7.5 6.95254 7.5 8.33325C7.5 9.71396 8.61929 10.8333 10 10.8333Z"
			stroke="currentColor" stroke-width="1.5" stroke-linecap="round" stroke-linejoin="round" />
		</svg>
	</symbol>
</svg>