<svg width="131" height="51" viewBox="0 0 131 51" fill="none" xmlns="http://www.w3.org/2000/svg">
<path d="M79.0677 19.1926V-0.000116348H51.2921V22.7233C51.2921 22.7233 53.7667 20.506 57.1698 20.2885C62.0344 19.9778 64.046 22.2826 68.6603 23.0453C74.305 23.9774 77.9935 20.6133 78.8552 19.6389C79.0677 19.3875 79.0328 19.3225 79.059 19.266L79.0677 19.1926Z" fill="#B2AFA4"/>
<path d="M53.9151 18.6047C54.8467 18.1302 55.6734 17.8873 57.6356 17.7772C62.372 17.5116 64.1391 19.2177 68.6223 19.8899C72.142 20.4209 74.1274 19.6583 75.6266 18.7262C76.4214 18.2319 76.2118 18.3618 76.6281 18.0257C76.9978 17.7263 77.088 17.5173 77.0327 17.3111C77.0182 17.2461 76.9483 17.2461 76.8144 17.3337C76.7096 17.3987 76.5058 17.5314 76.5058 17.5314C72.9804 19.9182 68.3603 18.5144 64.3225 17.2857C60.5642 16.1417 55.9529 16.6445 53.8627 18.0879C53.8627 18.0879 53.6152 18.2432 53.4406 18.5031C53.3823 18.5878 53.2484 18.938 53.4144 18.8646C53.6036 18.777 53.7608 18.6725 53.9151 18.6047ZM59.3997 12.6647L55.4056 7.57492V12.6647H53.6123V4.66283H55.2862L59.1523 9.58882V4.66283H60.9456V12.6647H59.3997Z" fill="#FAF9F5"/>
<path d="M66.3515 12.7979C63.9236 12.7979 62.1216 10.9817 62.1216 8.6825V8.65708C62.1216 6.38333 63.8887 4.51914 66.4214 4.51914C67.976 4.51914 68.9075 5.02191 69.6761 5.75346L68.5203 7.0471C67.8828 6.48502 67.2336 6.14325 66.4097 6.14325C65.0211 6.14325 64.0226 7.26459 64.0226 8.63449V8.65708C64.0226 10.0298 64.9949 11.1737 66.4097 11.1737C67.353 11.1737 67.9294 10.8094 68.5786 10.236L69.7343 11.3686C68.8842 12.2499 67.941 12.7979 66.3515 12.7979ZM70.9337 12.6594V4.65472H72.7503V11.0579H76.8638V12.6594H70.9337Z" fill="#FAF9F5"/>
<path d="M8.73354 40.0714L2.70158 32.3886V40.0714H0V27.988H2.52399L8.36091 35.4278V27.988H11.0625V40.0714H8.73354ZM25.6533 34.0297C25.6533 31.9565 24.0871 30.2307 21.8833 30.2307C19.6796 30.2307 18.1483 31.9254 18.1483 33.9958V34.0297C18.1483 36.1029 19.7145 37.8259 21.9212 37.8259C24.122 37.8259 25.6533 36.134 25.6533 34.0636V34.0297ZM21.8833 40.2776C18.0406 40.2776 15.2837 37.4982 15.2837 34.0636V34.0297C15.2837 30.5951 18.0784 27.779 21.9212 27.779C25.761 27.779 28.5179 30.5612 28.5179 33.9958V34.0297C28.5179 37.4643 25.7261 40.2776 21.8833 40.2776ZM40.0084 32.1147C40.0084 30.9764 39.1903 30.3889 37.857 30.3889H35.1321V33.8602H37.9094C39.2427 33.8602 40.0084 33.1682 40.0084 32.1485V32.1147ZM39.956 40.0742L37.2864 36.2046H35.1321V40.0742H32.3956V27.9908H38.087C41.0244 27.9908 42.7856 29.4907 42.7856 31.9762V32.013C42.7856 33.9619 41.6998 35.1877 40.1161 35.7583L43.1583 40.0742H39.956ZM60.4507 40.1589H58.0664L55.2571 32.2502L52.4449 40.1589H50.0636L45.8133 27.988H48.7477L51.327 36.1707L54.1159 27.9541H56.4653L59.2571 36.1707L61.8364 27.988H64.701L60.4507 40.1589ZM67.9848 40.0714V27.988H77.3792V30.3521H70.7068V32.8038H76.5786V35.168H70.7068V37.7072H77.4665V40.0714H67.9848ZM87.152 40.2804C83.2743 40.2804 80.6077 37.6394 80.6077 34.0664V34.0325C80.6077 30.5951 83.3617 27.7818 87.1346 27.7818C89.3762 27.7818 90.7299 28.3693 92.0282 29.4398L90.3019 31.4594C89.3412 30.6826 88.4883 30.2335 87.0443 30.2335C85.0531 30.2335 83.4694 31.9424 83.4694 33.9958V34.0325C83.4694 36.2413 85.0356 37.8626 87.2423 37.8626C88.2379 37.8626 89.1287 37.6197 89.8216 37.1395V35.4109H87.0647V33.1174H92.4737V38.3653C91.1927 39.4161 89.4315 40.2804 87.152 40.2804ZM96.7473 40.0714H99.4872V27.988H96.7473V40.0714ZM109.42 31.0978L107.766 35.0154H111.07L109.42 31.0978ZM113.187 40.0742L111.786 37.3626H106.788L105.647 40.0742H102.855L108.191 27.9033H110.715L116.051 40.0742H113.187ZM128.042 40.0714L122.01 32.3886V40.0714H119.309V27.988H121.833L127.667 35.4278V27.988H130.371V40.0714H128.042ZM35.1525 50.5334C33.3185 50.5334 31.9589 49.1607 31.9589 47.4265V47.4095C31.9589 45.6922 33.2923 44.2828 35.2049 44.2828C36.381 44.2828 37.0826 44.6641 37.6619 45.2148L36.7886 46.1921C36.3112 45.7685 35.8192 45.5086 35.1962 45.5086C34.1482 45.5086 33.3912 46.356 33.3912 47.3926V47.4095C33.3912 48.4433 34.1307 49.3076 35.1962 49.3076C35.9094 49.3076 36.3461 49.0336 36.8352 48.6015L37.7056 49.4545C37.0652 50.1211 36.3548 50.5334 35.1525 50.5334Z" fill="#B2AFA4"/>
<path d="M43.5046 46.4661C43.5046 45.8956 43.097 45.6018 42.4274 45.6018H41.0679V47.3389H42.4566C43.1232 47.3389 43.5046 46.9943 43.5046 46.483V46.4661ZM43.4785 50.4458L42.1451 48.5138H41.068V50.4458H39.6969V44.4039H42.544C44.0141 44.4039 44.8934 45.1525 44.8934 46.3981V46.4117C44.8934 47.3889 44.352 48.0018 43.5601 48.2871L45.0797 50.4451L43.4785 50.4458ZM49.6181 50.5411C47.9442 50.5411 46.9224 49.6345 46.9224 47.8549V44.4033H48.2907V47.821C48.2907 48.8067 48.8001 49.3152 49.6356 49.3152C50.4711 49.3152 50.9777 48.8237 50.9777 47.8634V44.4034H52.3488V47.8128C52.3488 49.6431 51.2892 50.5411 49.6181 50.5411ZM54.698 50.4481H56.0691V44.4037H54.698V50.4481ZM60.7272 50.5329C59.784 50.5329 58.832 50.2137 58.0838 49.5668L58.8931 48.6262C59.455 49.0753 60.0431 49.3606 60.7534 49.3606C61.3152 49.3606 61.6529 49.1432 61.6529 48.79V48.7742C61.6529 48.4381 61.4403 48.2629 60.3982 48.0059C59.1435 47.6952 58.3342 47.3563 58.3342 46.1559V46.14C58.3342 45.0441 59.2425 44.321 60.5147 44.321C61.4201 44.321 62.1973 44.595 62.8291 45.0865L62.1158 46.0892C61.5627 45.7164 61.0212 45.4932 60.4972 45.4932C59.9703 45.4932 59.6937 45.7277 59.6937 46.0186V46.0389C59.6937 46.4344 59.9615 46.5643 61.0387 46.8326C62.3021 47.1518 63.0154 47.5924 63.0154 48.646V48.6618C63.0154 49.8622 62.0693 50.5329 60.7272 50.5329ZM65.094 50.4497V44.4052H69.7926V45.5887H66.4534V46.8145H69.3906V47.998H66.4534V49.2663H69.8361V50.4497H65.094ZM75.5043 50.4497V44.4052H76.8755V49.2408H79.9818V50.4497H75.5043ZM81.9614 50.4497H83.3332V44.4052H81.9614V50.4497ZM90.1449 50.4497L87.1317 46.6083V50.4497H85.778V44.4052H87.0443L89.9583 48.128V44.4052H91.3091V50.4497H90.1449ZM93.6935 50.4497V44.4052H98.3921V45.5887H95.0559V46.8145H97.9932V47.998H95.0559V49.2663H98.4387V50.4497H93.6935Z" fill="#B2AFA4"/>
</svg>
